# xmcd CD database file
#
# Track frame offsets:
#	150
#	43748
#	75824
#	104421
#	136701
#	172472
#	208190
#	249363
#
# Disc length: 3851 seconds
#
# Revision: 0
# Processed by: cddbd v1.5PL3 Copyright (c) Steve Scherf et al.
# Submitted via: CDex 1.50
#
DISCID=670f0908
DTITLE=Donato-Lambert-Leviev - Les Trois Michel
DYEAR=2002
DGENRE=Jazz
TTITLE0=Morning Mystery
TTITLE1=Ripped Wing
TTITLE2=Good Morninng
TTITLE3=Earl& George
TTITLE4=Blue in White
TTITLE5=Escapade
TTITLE6=Disenchantement
TTITLE7=Con Alma
EXTD=YEAR: 2002
EXTT0=
EXTT1=
EXTT2=
EXTT3=
EXTT4=
EXTT5=
EXTT6=
EXTT7=
PLAYORDER=
